<?xml version="1.0" encoding="UTF-8" standalone="no"?>
<!DOCTYPE svg PUBLIC "-//W3C//DTD SVG 1.1//EN"
 "http://www.w3.org/Graphics/SVG/1.1/DTD/svg11.dtd">
<!-- Generated by graphviz version 2.43.0 (0)
 -->
<!-- Title: cmtrack Pages: 1 -->
<svg width="965pt" height="852pt"
 viewBox="0.00 0.00 965.20 852.20" xmlns="http://www.w3.org/2000/svg" xmlns:xlink="http://www.w3.org/1999/xlink">
<g id="graph0" class="graph" transform="scale(1 1) rotate(0) translate(21.6 830.6)">
<title>cmtrack</title>
<polygon fill="white" stroke="transparent" points="-21.6,21.6 -21.6,-830.6 943.6,-830.6 943.6,21.6 -21.6,21.6"/>
<text text-anchor="start" x="382" y="-793.2" font-family="Helvetica,sans-Serif" font-weight="bold" font-size="16.00">cmtrack ontology</text>
<text text-anchor="start" x="244" y="-782" font-family="Helvetica,sans-Serif" font-size="10.00">solid = stored in cmtrack · dashed = external, read live · grey text = standard alignment</text>
<g id="clust1" class="cluster">
<title>cluster_product</title>
<path fill="#eef4fb" stroke="#9bb8d8" d="M392.5,-679C392.5,-679 894.5,-679 894.5,-679 900.5,-679 906.5,-685 906.5,-691 906.5,-691 906.5,-755 906.5,-755 906.5,-761 900.5,-767 894.5,-767 894.5,-767 392.5,-767 392.5,-767 386.5,-767 380.5,-761 380.5,-755 380.5,-755 380.5,-691 380.5,-691 380.5,-685 386.5,-679 392.5,-679"/>
<text text-anchor="start" x="467" y="-751.2" font-family="Helvetica,sans-Serif" font-weight="bold" font-size="16.00">Product space</text>
<text text-anchor="start" x="596" y="-751.2" font-family="Helvetica,sans-Serif" font-size="16.00"> — what things are made of</text>
</g>
<g id="clust2" class="cluster">
<title>cluster_version</title>
<path fill="#f1f8ee" stroke="#a6cc98" d="M382,-358C382,-358 902,-358 902,-358 908,-358 914,-364 914,-370 914,-370 914,-534 914,-534 914,-540 908,-546 902,-546 902,-546 382,-546 382,-546 376,-546 370,-540 370,-534 370,-534 370,-370 370,-370 370,-364 376,-358 382,-358"/>
<text text-anchor="start" x="492.5" y="-530.2" font-family="Helvetica,sans-Serif" font-weight="bold" font-size="16.00">Version space</text>
<text text-anchor="start" x="617.5" y="-530.2" font-family="Helvetica,sans-Serif" font-size="16.00"> — how things evolve</text>
</g>
<g id="clust3" class="cluster">
<title>cluster_baseline</title>
<path fill="#fdf5e8" stroke="#e0c38f" d="M20,-8C20,-8 563.5,-8 563.5,-8 569.5,-8 575.5,-14 575.5,-20 575.5,-20 575.5,-150 575.5,-150 575.5,-156 569.5,-162 563.5,-162 563.5,-162 20,-162 20,-162 14,-162 8,-156 8,-150 8,-150 8,-20 8,-20 8,-14 14,-8 20,-8"/>
<text text-anchor="start" x="188.75" y="-146.2" font-family="Helvetica,sans-Serif" font-weight="bold" font-size="16.00">IFCs &amp; HSCM baselines</text>
</g>
<g id="clust4" class="cluster">
<title>cluster_work</title>
<path fill="none" stroke="#b9a3d1" stroke-dasharray="5,2" d="M406,-170C406,-170 860,-170 860,-170 866,-170 872,-176 872,-182 872,-182 872,-336 872,-336 872,-342 866,-348 860,-348 860,-348 406,-348 406,-348 400,-348 394,-342 394,-336 394,-336 394,-182 394,-182 394,-176 400,-170 406,-170"/>
<text text-anchor="start" x="449.5" y="-332.2" font-family="Helvetica,sans-Serif" font-weight="bold" font-size="16.00">Work</text>
<text text-anchor="start" x="497.5" y="-332.2" font-family="Helvetica,sans-Serif" font-size="16.00"> — ticket source is the system of record</text>
</g>
<g id="clust5" class="cluster">
<title>cluster_prov</title>
<path fill="#f3f3f3" stroke="#bbbbbb" d="M48.5,-361C48.5,-361 187.5,-361 187.5,-361 193.5,-361 199.5,-367 199.5,-373 199.5,-373 199.5,-573 199.5,-573 199.5,-579 193.5,-585 187.5,-585 187.5,-585 48.5,-585 48.5,-585 42.5,-585 36.5,-579 36.5,-573 36.5,-573 36.5,-373 36.5,-373 36.5,-367 42.5,-361 48.5,-361"/>
<text text-anchor="start" x="65" y="-569.2" font-family="Helvetica,sans-Serif" font-weight="bold" font-size="16.00">Provenance</text>
</g>
<!-- CI -->
<g id="node1" class="node">
<title>CI</title>
<path fill="#cfe2f7" stroke="black" stroke-width="1.2" d="M886.5,-732.5C886.5,-732.5 745.5,-732.5 745.5,-732.5 739.5,-732.5 733.5,-726.5 733.5,-720.5 733.5,-720.5 733.5,-699.5 733.5,-699.5 733.5,-693.5 739.5,-687.5 745.5,-687.5 745.5,-687.5 886.5,-687.5 886.5,-687.5 892.5,-687.5 898.5,-693.5 898.5,-699.5 898.5,-699.5 898.5,-720.5 898.5,-720.5 898.5,-726.5 892.5,-732.5 886.5,-732.5"/>
<text text-anchor="start" x="758.5" y="-720.7" font-family="Helvetica,sans-Serif" font-weight="bold" font-size="11.00">Configuration Item</text>
<text text-anchor="start" x="741.5" y="-711.3" font-family="Helvetica,sans-Serif" font-size="9.00">CSCI | HWCI · simple | composite</text>
<text text-anchor="start" x="756" y="-702.3" font-family="Helvetica,sans-Serif" font-size="9.00">placeholder (managed=0)</text>
<text text-anchor="start" x="757" y="-694.1" font-family="Helvetica,sans-Serif" font-size="8.00" fill="#777777">EIA&#45;649 CI · OSLC component</text>
</g>
<!-- RS -->
<g id="node12" class="node">
<title>RS</title>
<path fill="#e4e4e4" stroke="black" stroke-width="1.2" stroke-dasharray="5,2" d="M161,-473C161,-473 75,-473 75,-473 69,-473 63,-467 63,-461 63,-461 63,-449 63,-449 63,-443 69,-437 75,-437 75,-437 161,-437 161,-437 167,-437 173,-443 173,-449 173,-449 173,-461 173,-461 173,-467 167,-473 161,-473"/>
<text text-anchor="start" x="71" y="-453.2" font-family="Helvetica,sans-Serif" font-weight="bold" font-size="11.00">Release source</text>
</g>
<!-- CI&#45;&gt;RS -->
<g id="edge21" class="edge">
<title>CI&#45;&gt;RS</title>
<path fill="none" stroke="#555555" stroke-dasharray="5,2" d="M733.32,-696.93C595.79,-673.53 325.85,-621.15 253,-560 226.35,-537.63 245.93,-512.21 220,-489 208.75,-478.92 194.4,-471.82 180.07,-466.81"/>
<polygon fill="#555555" stroke="#555555" points="180.47,-464.36 173.06,-464.52 178.95,-469.02 180.47,-464.36"/>
<text text-anchor="middle" x="476.5" y="-668.8" font-family="Helvetica,sans-Serif" font-size="9.00">releaseSource</text>
</g>
<!-- CSC -->
<g id="node2" class="node">
<title>CSC</title>
<path fill="#cfe2f7" stroke="black" stroke-width="1.2" d="M552.5,-733C552.5,-733 400.5,-733 400.5,-733 394.5,-733 388.5,-727 388.5,-721 388.5,-721 388.5,-709 388.5,-709 388.5,-703 394.5,-697 400.5,-697 400.5,-697 552.5,-697 552.5,-697 558.5,-697 564.5,-703 564.5,-709 564.5,-709 564.5,-721 564.5,-721 564.5,-727 558.5,-733 552.5,-733"/>
<text text-anchor="start" x="464" y="-721.2" font-family="Helvetica,sans-Serif" font-weight="bold" font-size="11.00">CSC</text>
<text text-anchor="start" x="396.5" y="-711.8" font-family="Helvetica,sans-Serif" font-size="9.00">key: (Jira project, affected product)</text>
<text text-anchor="start" x="450.5" y="-703.6" font-family="Helvetica,sans-Serif" font-size="8.00" fill="#777777">MIL&#45;STD&#45;498</text>
</g>
<!-- CSC&#45;&gt;CI -->
<g id="edge1" class="edge">
<title>CSC&#45;&gt;CI</title>
<path fill="none" stroke="#555555" d="M564.85,-713.71C614.37,-712.97 676.19,-712.06 725.98,-711.32"/>
<polygon fill="#555555" stroke="#555555" points="726.27,-713.76 733.23,-711.21 726.2,-708.87 726.27,-713.76"/>
<text text-anchor="middle" x="650.5" y="-714.8" font-family="Helvetica,sans-Serif" font-size="9.00">partOf (CSCI)</text>
</g>
<!-- Rel -->
<g id="node3" class="node">
<title>Rel</title>
<path fill="#d6ecce" stroke="black" stroke-width="1.2" d="M563,-473.5C563,-473.5 390,-473.5 390,-473.5 384,-473.5 378,-467.5 378,-461.5 378,-461.5 378,-448.5 378,-448.5 378,-442.5 384,-436.5 390,-436.5 390,-436.5 563,-436.5 563,-436.5 569,-436.5 575,-442.5 575,-448.5 575,-448.5 575,-461.5 575,-461.5 575,-467.5 569,-473.5 563,-473.5"/>
<text text-anchor="start" x="452" y="-461.7" font-family="Helvetica,sans-Serif" font-weight="bold" font-size="11.00">Release</text>
<text text-anchor="start" x="387.5" y="-452.3" font-family="Helvetica,sans-Serif" font-size="9.00">planned | patch | emergency | external</text>
<text text-anchor="start" x="386" y="-443.3" font-family="Helvetica,sans-Serif" font-size="9.00">planned → active → released | cancelled</text>
</g>
<!-- Rel&#45;&gt;CI -->
<g id="edge2" class="edge">
<title>Rel&#45;&gt;CI</title>
<path fill="none" stroke="#555555" d="M490.71,-473.95C512.26,-503.67 557.65,-561.5 608,-597 641.53,-620.64 656.64,-613.99 693,-633 721.95,-648.14 753.08,-667.84 776.64,-683.53"/>
<polygon fill="#555555" stroke="#555555" points="775.28,-685.57 782.46,-687.42 778.01,-681.5 775.28,-685.57"/>
<text text-anchor="middle" x="650.5" y="-635.8" font-family="Helvetica,sans-Serif" font-size="9.00">releaseOf</text>
</g>
<!-- Rel&#45;&gt;Rel -->
<g id="edge7" class="edge">
<title>Rel&#45;&gt;Rel</title>
<path fill="none" stroke="#555555" d="M448.85,-473.65C437.04,-489.22 446.25,-505.5 476.5,-505.5 502.73,-505.5 513.14,-493.26 507.74,-479.85"/>
<polygon fill="#555555" stroke="#555555" points="509.78,-478.47 504.15,-473.65 505.54,-480.93 509.78,-478.47"/>
<text text-anchor="middle" x="476.5" y="-508.3" font-family="Helvetica,sans-Serif" font-size="9.00">patches (→ root planned)</text>
</g>
<!-- Ver -->
<g id="node4" class="node">
<title>Ver</title>
<path fill="#d6ecce" stroke="black" stroke-width="2" d="M894,-424.5C894,-424.5 738,-424.5 738,-424.5 732,-424.5 726,-418.5 726,-412.5 726,-412.5 726,-383.5 726,-383.5 726,-377.5 732,-371.5 738,-371.5 738,-371.5 894,-371.5 894,-371.5 900,-371.5 906,-377.5 906,-383.5 906,-383.5 906,-412.5 906,-412.5 906,-418.5 900,-424.5 894,-424.5"/>
<text text-anchor="start" x="772.5" y="-412.7" font-family="Helvetica,sans-Serif" font-weight="bold" font-size="11.00">Version</text>
<text text-anchor="start" x="819.5" y="-412.7" font-family="Helvetica,sans-Serif" font-size="11.00"> (build)</text>
<text text-anchor="start" x="734" y="-403.3" font-family="Helvetica,sans-Serif" font-size="9.00">planned → built → tested → released</text>
<text text-anchor="start" x="745.5" y="-394.3" font-family="Helvetica,sans-Serif" font-size="9.00">rejected · external · unplanned</text>
<text text-anchor="start" x="739" y="-386.1" font-family="Helvetica,sans-Serif" font-size="8.00" fill="#777777">CMPO Version · OSLC VersionResource</text>
<text text-anchor="start" x="751" y="-378.1" font-family="Helvetica,sans-Serif" font-size="8.00" fill="#777777">builtFrom ⊑ prov:wasRevisionOf</text>
</g>
<!-- Rel&#45;&gt;Ver -->
<g id="edge8" class="edge">
<title>Rel&#45;&gt;Ver</title>
<path fill="none" stroke="#555555" d="M509.77,-436.42C535.45,-422.76 572.79,-405.35 608,-398 643.55,-390.57 683.29,-389.01 718.38,-389.84"/>
<polygon fill="#555555" stroke="#555555" points="718.72,-392.3 725.79,-390.05 718.86,-387.4 718.72,-392.3"/>
<text text-anchor="middle" x="650.5" y="-400.8" font-family="Helvetica,sans-Serif" font-size="9.00">basedOn</text>
</g>
<!-- Rel&#45;&gt;Ver -->
<g id="edge9" class="edge">
<title>Rel&#45;&gt;Ver</title>
<path fill="none" stroke="#555555" stroke-width="1.6" d="M575.12,-438.51C620.3,-430.88 673.81,-421.85 718.81,-414.24"/>
<polygon fill="#555555" stroke="#555555" stroke-width="1.6" points="719.47,-416.62 725.96,-413.04 718.65,-411.79 719.47,-416.62"/>
<text text-anchor="start" x="626" y="-444.8" font-family="Helvetica,sans-Serif" font-size="9.00">releasedAs</text>
<text text-anchor="start" x="631" y="-434.8" font-family="Helvetica,sans-Serif" font-size="9.00" fill="#999999">set once</text>
</g>
<!-- Ver&#45;&gt;CI -->
<g id="edge4" class="edge">
<title>Ver&#45;&gt;CI</title>
<path fill="none" stroke="#555555" stroke-dasharray="5,2" d="M816,-424.6C816,-482.52 816,-619.69 816,-680.31"/>
<polygon fill="#555555" stroke="#555555" points="813.55,-680.31 816,-687.31 818.45,-680.31 813.55,-680.31"/>
<text text-anchor="start" x="781.5" y="-558.8" font-family="Helvetica,sans-Serif" font-size="9.00">versionOf</text>
<text text-anchor="start" x="754.5" y="-548.8" font-family="Helvetica,sans-Serif" font-size="9.00" fill="#999999">= buildOf ∘ releaseOf</text>
</g>
<!-- Ver&#45;&gt;Rel -->
<g id="edge3" class="edge">
<title>Ver&#45;&gt;Rel</title>
<path fill="none" stroke="#555555" d="M778.93,-424.57C755.69,-439.99 724.1,-457.92 693,-466 657.56,-475.21 617.78,-475.78 582.12,-472.97"/>
<polygon fill="#555555" stroke="#555555" points="582.23,-470.52 575.05,-472.37 581.82,-475.41 582.23,-470.52"/>
<text text-anchor="middle" x="650.5" y="-477.8" font-family="Helvetica,sans-Serif" font-size="9.00">buildOf</text>
</g>
<!-- Ver&#45;&gt;Ver -->
<g id="edge5" class="edge">
<title>Ver&#45;&gt;Ver</title>
<path fill="none" stroke="#3f7f2f" stroke-width="1.6" d="M801.65,-424.78C798.32,-441.07 803.11,-456.5 816,-456.5 826.98,-456.5 832.08,-445.31 831.3,-431.93"/>
<polygon fill="#3f7f2f" stroke="#3f7f2f" stroke-width="1.6" points="833.7,-431.39 830.35,-424.78 828.84,-432.04 833.7,-431.39"/>
<text text-anchor="middle" x="816" y="-459.3" font-family="Helvetica,sans-Serif" font-size="9.00" fill="#3f7f2f">builtFrom (lineage)</text>
</g>
<!-- Ver&#45;&gt;Ver -->
<g id="edge6" class="edge">
<title>Ver&#45;&gt;Ver</title>
<path fill="none" stroke="#1f5fa0" d="M792.94,-424.87C777.56,-454.56 785.25,-488.5 816,-488.5 844.47,-488.5 853.17,-459.41 842.1,-431.53"/>
<polygon fill="#1f5fa0" stroke="#1f5fa0" points="844.2,-430.22 839.06,-424.87 839.74,-432.25 844.2,-430.22"/>
<text text-anchor="middle" x="816" y="-491.3" font-family="Helvetica,sans-Serif" font-size="9.00" fill="#1f5fa0">contains (manifest)</text>
</g>
<!-- Cap -->
<g id="node5" class="node">
<title>Cap</title>
<path fill="#f7e2bd" stroke="black" stroke-width="1.2" d="M208,-89C208,-89 28,-89 28,-89 22,-89 16,-83 16,-77 16,-77 16,-65 16,-65 16,-59 22,-53 28,-53 28,-53 208,-53 208,-53 214,-53 220,-59 220,-65 220,-65 220,-77 220,-77 220,-83 214,-89 208,-89"/>
<text text-anchor="start" x="69.5" y="-73.2" font-family="Helvetica,sans-Serif" font-weight="bold" font-size="11.00">Capability (IFC)</text>
<text text-anchor="start" x="24" y="-63.8" font-family="Helvetica,sans-Serif" font-size="9.00">spawns from an HSCM · builds 1..N · final</text>
</g>
<!-- Base -->
<g id="node6" class="node">
<title>Base</title>
<path fill="#f7e2bd" stroke="black" stroke-width="1.2" d="M555.5,-61.5C555.5,-61.5 397.5,-61.5 397.5,-61.5 391.5,-61.5 385.5,-55.5 385.5,-49.5 385.5,-49.5 385.5,-28.5 385.5,-28.5 385.5,-22.5 391.5,-16.5 397.5,-16.5 397.5,-16.5 555.5,-16.5 555.5,-16.5 561.5,-16.5 567.5,-22.5 567.5,-28.5 567.5,-28.5 567.5,-49.5 567.5,-49.5 567.5,-55.5 561.5,-61.5 555.5,-61.5"/>
<text text-anchor="start" x="424.5" y="-49.7" font-family="Helvetica,sans-Serif" font-weight="bold" font-size="11.00">Baseline (HSCM)</text>
<text text-anchor="start" x="404" y="-40.3" font-family="Helvetica,sans-Serif" font-size="9.00">draft → approved → superseded</text>
<text text-anchor="start" x="414.5" y="-31.3" font-family="Helvetica,sans-Serif" font-size="9.00">one version per CI · Build N</text>
<text text-anchor="start" x="393.5" y="-23.1" font-family="Helvetica,sans-Serif" font-size="8.00" fill="#777777">draft ≈ OSLC stream · approved = frozen</text>
</g>
<!-- Cap&#45;&gt;Base -->
<g id="edge11" class="edge">
<title>Cap&#45;&gt;Base</title>
<path fill="none" stroke="#555555" stroke-width="2" d="M215.04,-52.97C227.77,-51.04 240.68,-49.3 253,-48 293.9,-43.68 339.23,-41.4 378.24,-40.2"/>
<polygon fill="#555555" stroke="#555555" stroke-width="2" points="378.53,-42.65 385.45,-39.99 378.38,-37.75 378.53,-42.65"/>
<text text-anchor="middle" x="299" y="-50.8" font-family="Helvetica,sans-Serif" font-size="9.00">spawnedFrom · final</text>
</g>
<!-- Base&#45;&gt;Ver -->
<g id="edge12" class="edge">
<title>Base&#45;&gt;Ver</title>
<path fill="none" stroke="#555555" stroke-width="1.6" d="M567.75,-60.65C612.27,-75.99 662.77,-101.31 693,-142 750.39,-219.25 668.42,-278.89 726,-356 728.95,-359.95 732.37,-363.55 736.12,-366.82"/>
<polygon fill="#555555" stroke="#555555" stroke-width="1.6" points="734.82,-368.92 741.82,-371.38 737.88,-365.1 734.82,-368.92"/>
<text text-anchor="start" x="635" y="-154.8" font-family="Helvetica,sans-Serif" font-size="9.00">selects</text>
<text text-anchor="start" x="608" y="-144.8" font-family="Helvetica,sans-Serif" font-size="9.00" fill="#999999">oslc_config:selects</text>
</g>
<!-- Base&#45;&gt;Cap -->
<g id="edge10" class="edge">
<title>Base&#45;&gt;Cap</title>
<path fill="none" stroke="#555555" d="M385.44,-53.99C371.91,-55.9 358.11,-57.65 345,-59 306.8,-62.93 264.83,-65.61 227.53,-67.42"/>
<polygon fill="#555555" stroke="#555555" points="227.01,-64.99 220.14,-67.77 227.25,-69.89 227.01,-64.99"/>
<text text-anchor="middle" x="299" y="-68.8" font-family="Helvetica,sans-Serif" font-size="9.00">baselineOf (build N)</text>
</g>
<!-- Base&#45;&gt;Base -->
<g id="edge13" class="edge">
<title>Base&#45;&gt;Base</title>
<path fill="none" stroke="#555555" d="M461.86,-61.68C457.26,-77.67 462.14,-93.5 476.5,-93.5 488.73,-93.5 494.08,-82.02 492.56,-68.74"/>
<polygon fill="#555555" stroke="#555555" points="494.92,-68.06 491.14,-61.68 490.12,-69.02 494.92,-68.06"/>
<text text-anchor="middle" x="476.5" y="-96.3" font-family="Helvetica,sans-Serif" font-size="9.00">supersedes</text>
</g>
<!-- Base&#45;&gt;Base -->
<g id="edge14" class="edge">
<title>Base&#45;&gt;Base</title>
<path fill="none" stroke="#555555" d="M453.91,-61.59C435.16,-90.65 442.69,-125.5 476.5,-125.5 507.94,-125.5 516.65,-95.38 502.65,-67.79"/>
<polygon fill="#555555" stroke="#555555" points="504.7,-66.44 499.09,-61.59 500.45,-68.88 504.7,-66.44"/>
<text text-anchor="start" x="448" y="-138.3" font-family="Helvetica,sans-Serif" font-size="9.00">derivedFrom</text>
<text text-anchor="start" x="460" y="-128.3" font-family="Helvetica,sans-Serif" font-size="9.00" fill="#999999">lineage</text>
</g>
<!-- PT -->
<g id="node7" class="node">
<title>PT</title>
<path fill="#e6dcf2" stroke="black" stroke-width="1.2" stroke-dasharray="5,2" d="M852,-305C852,-305 780,-305 780,-305 774,-305 768,-299 768,-293 768,-293 768,-281 768,-281 768,-275 774,-269 780,-269 780,-269 852,-269 852,-269 858,-269 864,-275 864,-281 864,-281 864,-293 864,-293 864,-299 858,-305 852,-305"/>
<text text-anchor="start" x="776" y="-285.2" font-family="Helvetica,sans-Serif" font-weight="bold" font-size="11.00">Parent ticket</text>
</g>
<!-- CT -->
<g id="node8" class="node">
<title>CT</title>
<path fill="#e6dcf2" stroke="black" stroke-width="1.2" stroke-dasharray="5,2" d="M539,-314C539,-314 414,-314 414,-314 408,-314 402,-308 402,-302 402,-302 402,-290 402,-290 402,-284 408,-278 414,-278 414,-278 539,-278 539,-278 545,-278 551,-284 551,-290 551,-290 551,-302 551,-302 551,-308 545,-314 539,-314"/>
<text text-anchor="start" x="444.5" y="-298.2" font-family="Helvetica,sans-Serif" font-weight="bold" font-size="11.00">CSC ticket</text>
<text text-anchor="start" x="410" y="-288.8" font-family="Helvetica,sans-Serif" font-size="9.00">state: analysis … done | error</text>
</g>
<!-- CT&#45;&gt;CSC -->
<g id="edge16" class="edge">
<title>CT&#45;&gt;CSC</title>
<path fill="none" stroke="#555555" stroke-dasharray="5,2" d="M420.55,-314.09C402.22,-322.45 383.19,-334.14 370,-350 313.11,-418.38 326.19,-453.96 313.5,-542 305.16,-599.89 335.82,-640.85 370,-673 379.1,-681.56 390.15,-688.45 401.65,-693.97"/>
<polygon fill="#555555" stroke="#555555" points="400.69,-696.22 408.07,-696.9 402.72,-691.77 400.69,-696.22"/>
<text text-anchor="middle" x="299" y="-544.8" font-family="Helvetica,sans-Serif" font-size="9.00">affects</text>
</g>
<!-- CT&#45;&gt;Ver -->
<g id="edge17" class="edge">
<title>CT&#45;&gt;Ver</title>
<path fill="none" stroke="#555555" stroke-dasharray="5,2" d="M537.06,-314C587.81,-329.34 661.64,-351.65 720.46,-369.43"/>
<polygon fill="#555555" stroke="#555555" points="719.78,-371.78 727.19,-371.46 721.2,-367.09 719.78,-371.78"/>
<text text-anchor="middle" x="650.5" y="-362.8" font-family="Helvetica,sans-Serif" font-size="9.00">fixedIn</text>
</g>
<!-- CT&#45;&gt;PT -->
<g id="edge15" class="edge">
<title>CT&#45;&gt;PT</title>
<path fill="none" stroke="#555555" stroke-dasharray="5,2" d="M551.15,-294.04C614.2,-292.35 703.56,-289.97 760.4,-288.46"/>
<polygon fill="#555555" stroke="#555555" points="760.57,-290.9 767.51,-288.27 760.44,-286 760.57,-290.9"/>
<text text-anchor="middle" x="650.5" y="-295.8" font-family="Helvetica,sans-Serif" font-size="9.00">childOf</text>
</g>
<!-- Back -->
<g id="node9" class="node">
<title>Back</title>
<path fill="#e6dcf2" stroke="black" stroke-width="1.2" d="M517.5,-237C517.5,-237 435.5,-237 435.5,-237 429.5,-237 423.5,-231 423.5,-225 423.5,-225 423.5,-213 423.5,-213 423.5,-207 429.5,-201 435.5,-201 435.5,-201 517.5,-201 517.5,-201 523.5,-201 529.5,-207 529.5,-213 529.5,-213 529.5,-225 529.5,-225 529.5,-231 523.5,-237 517.5,-237"/>
<text text-anchor="start" x="452" y="-221.2" font-family="Helvetica,sans-Serif" font-weight="bold" font-size="11.00">Backlog</text>
<text text-anchor="start" x="431.5" y="-211.8" font-family="Helvetica,sans-Serif" font-size="9.00">key + lexorank only</text>
</g>
<!-- Back&#45;&gt;CI -->
<g id="edge20" class="edge">
<title>Back&#45;&gt;CI</title>
<path fill="none" stroke="#555555" d="M529.53,-230.59C546.77,-237.01 564.37,-246.89 575.5,-262 651.89,-365.72 530.94,-446.78 608,-550 632.54,-582.88 659.07,-562.93 693,-586 732.64,-612.95 770.02,-654.14 792.71,-681.56"/>
<polygon fill="#555555" stroke="#555555" points="790.99,-683.33 797.32,-687.19 794.78,-680.23 790.99,-683.33"/>
<text text-anchor="middle" x="650.5" y="-588.8" font-family="Helvetica,sans-Serif" font-size="9.00">about</text>
</g>
<!-- Back&#45;&gt;PT -->
<g id="edge18" class="edge">
<title>Back&#45;&gt;PT</title>
<path fill="none" stroke="#555555" d="M529.86,-229.55C592.62,-242.19 697.24,-263.27 760.8,-276.08"/>
<polygon fill="#555555" stroke="#555555" points="760.62,-278.54 767.96,-277.52 761.58,-273.74 760.62,-278.54"/>
<text text-anchor="middle" x="650.5" y="-264.8" font-family="Helvetica,sans-Serif" font-size="9.00">ranks (ordered)</text>
</g>
<!-- Team -->
<g id="node10" class="node">
<title>Team</title>
<path fill="#e6dcf2" stroke="black" stroke-width="1.2" d="M831,-228C831,-228 801,-228 801,-228 795,-228 789,-222 789,-216 789,-216 789,-204 789,-204 789,-198 795,-192 801,-192 801,-192 831,-192 831,-192 837,-192 843,-198 843,-204 843,-204 843,-216 843,-216 843,-222 837,-228 831,-228"/>
<text text-anchor="start" x="799.5" y="-208.2" font-family="Helvetica,sans-Serif" font-weight="bold" font-size="11.00">Team</text>
</g>
<!-- Back&#45;&gt;Team -->
<g id="edge19" class="edge">
<title>Back&#45;&gt;Team</title>
<path fill="none" stroke="#555555" d="M529.53,-214.59C553.42,-212.77 582.13,-210.89 608,-210 669.33,-207.89 740.93,-208.59 781.82,-209.3"/>
<polygon fill="#555555" stroke="#555555" points="781.81,-211.75 788.85,-209.42 781.89,-206.85 781.81,-211.75"/>
<text text-anchor="middle" x="650.5" y="-212.8" font-family="Helvetica,sans-Serif" font-size="9.00">sharedBy</text>
</g>
<!-- Ev -->
<g id="node11" class="node">
<title>Ev</title>
<path fill="#e4e4e4" stroke="black" stroke-width="1.2" d="M179.5,-550.5C179.5,-550.5 56.5,-550.5 56.5,-550.5 50.5,-550.5 44.5,-544.5 44.5,-538.5 44.5,-538.5 44.5,-517.5 44.5,-517.5 44.5,-511.5 50.5,-505.5 56.5,-505.5 56.5,-505.5 179.5,-505.5 179.5,-505.5 185.5,-505.5 191.5,-511.5 191.5,-517.5 191.5,-517.5 191.5,-538.5 191.5,-538.5 191.5,-544.5 185.5,-550.5 179.5,-550.5"/>
<text text-anchor="start" x="100" y="-538.7" font-family="Helvetica,sans-Serif" font-weight="bold" font-size="11.00">Event</text>
<text text-anchor="start" x="54.5" y="-529.3" font-family="Helvetica,sans-Serif" font-size="9.00">append&#45;only log of changes</text>
<text text-anchor="start" x="55" y="-520.3" font-family="Helvetica,sans-Serif" font-size="9.00">to every entity · corrections</text>
<text text-anchor="start" x="52.5" y="-512.1" font-family="Helvetica,sans-Serif" font-size="8.00" fill="#777777">status accounting · prov:Activity</text>
</g>
<!-- RS&#45;&gt;Rel -->
<g id="edge22" class="edge">
<title>RS&#45;&gt;Rel</title>
<path fill="none" stroke="#555555" stroke-dasharray="1,5" d="M173.14,-455C225.39,-455 305.88,-455 370.68,-455"/>
<polygon fill="#555555" stroke="#555555" points="377.69,-455 370.69,-458.15 374.19,-455 370.69,-455 370.69,-455 370.69,-455 374.19,-455 370.69,-451.85 377.69,-455 377.69,-455"/>
<text text-anchor="middle" x="299" y="-457.8" font-family="Helvetica,sans-Serif" font-size="9.00">syncs</text>
</g>
<!-- TS -->
<g id="node13" class="node">
<title>TS</title>
<path fill="#e4e4e4" stroke="black" stroke-width="1.2" stroke-dasharray="5,2" d="M155.5,-405C155.5,-405 80.5,-405 80.5,-405 74.5,-405 68.5,-399 68.5,-393 68.5,-393 68.5,-381 68.5,-381 68.5,-375 74.5,-369 80.5,-369 80.5,-369 155.5,-369 155.5,-369 161.5,-369 167.5,-375 167.5,-381 167.5,-381 167.5,-393 167.5,-393 167.5,-399 161.5,-405 155.5,-405"/>
<text text-anchor="start" x="76.5" y="-385.2" font-family="Helvetica,sans-Serif" font-weight="bold" font-size="11.00">Ticket source</text>
</g>
<!-- TS&#45;&gt;CT -->
<g id="edge23" class="edge">
<title>TS&#45;&gt;CT</title>
<path fill="none" stroke="#555555" stroke-dasharray="1,5" d="M167.82,-374.54C227.1,-359.41 327.8,-333.7 397.78,-315.84"/>
<polygon fill="#555555" stroke="#555555" points="404.88,-314.03 398.87,-318.81 401.49,-314.89 398.09,-315.76 398.09,-315.76 398.09,-315.76 401.49,-314.89 397.31,-312.71 404.88,-314.03 404.88,-314.03"/>
<text text-anchor="middle" x="299" y="-355.8" font-family="Helvetica,sans-Serif" font-size="9.00">serves</text>
</g>
</g>
</svg>
